# xmcd CD database file
# Copyright (C) 1997 Ti Kan
#
# Track frame offsets:
#  187
#  12940
#  25600
#  38085
#  51925
#  65842
#  80687
#  93910
#  106607
#  121000
#  133527
#  146880
#  158965
#  172097
#  187075
#  200577
#  214335
#  227847
#  240907
#  254730
#  269777
#  283790
#
# Disc length: 3970 seconds
#
# Revision: 1
# Processed by: cddbd v1.4b41PL1 Copyright (c) Steve Scherf et al.
# Submitted via: CDWizzard Release:4.31
#
DISCID=4a0f8016
DTITLE=Washboard Sam - Rockin' My Blues Away
DYEAR=1900
DGENRE=
TTITLE0=My Feet Jumped Salty
TTITLE1=Flying Crow Blues
TTITLE2=Levee Camp Blues
TTITLE3=I'm Feeling Low Down
TTITLE4=She Belongs To The Devil
TTITLE5=I've Been Treated Wrong
TTITLE6=Evil Blues
TTITLE7=Get Down Brother
TTITLE8=Lover's Lane Blues
TTITLE9=Rockin' My Blues Away
TTITLE10=Good Old Cabbage Greens
TTITLE11=River Hip Mama
TTITLE12=Do That Shake Dance
TTITLE13=How Can You Love Me
TTITLE14=Red River Dam Blues
TTITLE15=Down South Woman Blues
TTITLE16=Ain't That A Shame
TTITLE17=I Get The Blues At Bedtime
TTITLE18=You Can't Make The Grade
TTITLE19=You Can't Have None Of That
TTITLE20=I Just Can't Help It
TTITLE21=Soap And Water Blues
EXTD=
EXTT0=
EXTT1=
EXTT2=
EXTT3=
EXTT4=
EXTT5=
EXTT6=
EXTT7=
EXTT8=
EXTT9=
EXTT10=
EXTT11=
EXTT12=
EXTT13=
EXTT14=
EXTT15=
EXTT16=
EXTT17=
EXTT18=
EXTT19=
EXTT20=
EXTT21=
PLAYORDER=
